<svg xmlns="http://www.w3.org/2000/svg" viewBox="-1.5 3 24.5 23">
  <path d="M 10 3 A 1 1 0 0 0 10 26 C 1 19 1 11 10 3 M 5 15 A 1 1 0 0 0 15 15 A 1 1 0 0 0 5 15 M 13 10 C 14 7 16 3 18 4 C 18 6 15 8 13 10 M 16 15 C 20 15 23 13 23 15 C 23 16 20 16 16 15 M 13 20 C 16 22 18 24 18 26 C 16 26 15 23 13 20 M 15 19 C 18 20 22 21 21 22 C 19 23 17 21 15 19 M 15 11 C 17 9 19 6 21 7 C 22 8 18 10 15 11 M 16 13 C 18 12 22 9 23 11 C 22 13 18.3333 12.3333 16 13 M 16 17 C 19 17 22 17 23 19 C 21 20 19 18 16 17" fill="#E3002B"/>
</svg>