<svg xmlns="http://www.w3.org/2000/svg" viewBox="-24 -10.1962 87.26 77.5">
  <path d="M 1 15 C 3 -8 43 -8 45 15 C 46 28 46 34 39 35 C 37 35 39 35 36 35 C 35 37 35 39 34 41 C 33 43 31 47 31 42 C 30 45 28 45 29 42 C 28 47 27 42 27 42 C 27 42 26 47 25 42 C 25 44 23 47 23 42 C 23 47 21 44 21 42 C 21 42 19 47 19 42 C 19 45 16 45 17 42 C 16 47 15 43 15 42 C 15 47 13 43 12 41 C 11 39 11 37 10 35 L 7 35 C 0 34 0 28 1 15 M 7 35 C 9 47 7 55 12 55 L 34 55 C 39 55 37 47 39 35 C 35 36 36 49 34 49 C 33 47 31 44 31 48 C 31 48 30 43 29 48 C 28 43 27 48 27 48 C 27 48 26 43 25 48 C 25 45 23 45 23 48 C 23 45 21 45 21 48 C 20 43 19 48 19 48 C 19 48 18 43 17 48 C 17 48 16 43 15 48 C 15 43 13 47 12 49 C 10 49 11 36 7 35 M 40 21 A 1 1 0 0 0 28 21 A 1 1 0 0 0 40 21 M 6 21 A 1 1 0 0 0 18 21 A 1 1 0 0 0 6 21 M 23 28 C 21 28 20 31 19 34 C 17 41 21.6667 38 22 37 C 23 36 23 35 24 37 C 24.3333 38 29 41 27 34 C 26 31 25 28 23 28 M 0 11 L -24 0 M 41 4 L 50 -5 C 52 -17 65 -5 52 -1 C 54 -14 71 -1 56 1 L 45 11 C 44 8 43 6 41 4 M 5 4 C 3 6 2 8 1 11 L -11 1 C -26 -1 -10 -14 -7 -1 C -20 -5 -6 -17 -4 -5 L 5 4 M 7 38 L 8 49 L -2 59 C 1 74 -20 65 -5 56 C -10 71 -24 54 -8 53 L 7 38 M 39 38 L 38 49 L 48 59 C 44 74 67 66 51 56 C 58 71 73 54 54 53 L 39 38" fill="0000"/>
</svg>