<svg xmlns="http://www.w3.org/2000/svg" viewBox="-7 -0.196152 87.26 77.5">
  <path d="M 18 25 C 20 2 60 2 62 25 C 63 38 63 44 56 45 C 54 45 56 45 53 45 C 52 47 52 49 51 51 C 50 53 48 57 48 52 C 47 55 45 55 46 52 C 45 57 44 52 44 52 C 44 52 43 57 42 52 C 42 54 40 57 40 52 C 40 57 38 54 38 52 C 38 52 36 57 36 52 C 36 55 33 55 34 52 C 33 57 32 53 32 52 C 32 57 30 53 29 51 C 28 49 28 47 27 45 L 24 45 C 17 44 17 38 18 25 M 24 45 C 26 57 24 65 29 65 L 51 65 C 56 65 54 57 56 45 C 52 46 53 59 51 59 C 50 57 48 54 48 58 C 48 58 47 53 46 58 C 45 53 44 58 44 58 C 44 58 43 53 42 58 C 42 55 40 55 40 58 C 40 55 38 55 38 58 C 37 53 36 58 36 58 C 36 58 35 53 34 58 C 34 58 33 53 32 58 C 32 53 30 57 29 59 C 27 59 28 46 24 45 M 57 31 A 1 1 0 0 0 45 31 A 1 1 0 0 0 57 31 M 23 31 A 1 1 0 0 0 35 31 A 1 1 0 0 0 23 31 M 40 38 C 38 38 37 41 36 44 C 34 51 38.6667 48 39 47 C 40 46 40 45 41 47 C 41.3333 48 46 51 44 44 C 43 41 42 38 40 38 M 17 21 L -7 10 M 58 14 L 67 5 C 69 -7 82 5 69 9 C 71 -4 88 9 73 11 L 62 21 C 61 18 60 16 58 14 M 22 14 C 20 16 19 18 18 21 L 6 11 C -8 9 7 -4 10 9 C -3 5 11 -7 13 5 L 22 14 M 24 48 L 25 59 L 15 69 C 18 84 -3 75 12 66 C 7 81 -7 64 9 63 L 24 48 M 56 48 L 55 59 L 65 69 C 61 84 84 76 68 66 C 75 81 90 64 71 63 L 56 48" fill="#00002B"/>
</svg>