<svg xmlns="http://www.w3.org/2000/svg" viewBox="0.526652 -2.25 44.95 57.25">
  <path d="m 1 15 c 2 -23 42 -23 44 0 c 1 13 1 19 -6 20 c -2 0 0 0 -3 0 c -1 2 -1 4 -2 6 c -1 2 -3 6 -3 1 c -1 3 -3 3 -2 0 c -1 5 -2 0 -2 0 c 0 0 -1 5 -2 0 c 0 2 -2 5 -2 0 c 0 5 -2 2 -2 0 c 0 0 -2 5 -2 0 c 0 3 -3 3 -2 0 c -1 5 -2 1 -2 0 c 0 5 -2 1 -3 -1 c -1 -2 -1 -4 -2 -6 l -3 0 c -7 -1 -7 -7 -6 -20 m 6 20 c 1 12 0 20 5 20 l 22 0 c 5 0 4 -8 5 -20 c -4 1 -3 14 -5 14 c -1 -2 -3 -5 -3 -1 c 0 0 -1 -5 -2 0 c -1 -5 -2 0 -2 0 c 0 0 -1 -5 -2 0 c 0 -3 -2 -3 -2 0 c 0 -3 -2 -3 -2 0 c -1 -5 -2 0 -2 0 c 0 0 -1 -5 -2 0 c 0 0 -1 -5 -2 0 c 0 -5 -2 -1 -3 1 c -2 0 -1 -13 -5 -14 m 33 -14 a 1 1 0 0 0 -12 0 a 1 1 0 0 0 12 0 m -34 0 a 1 1 0 0 0 12 0 a 1 1 0 0 0 -12 0 m 17 7 c -2 0 -3 3 -4 6 c -2 7 2.6667 4 3 3 c 1 -1 1 -2 2 0 c 0.3333 1 5 4 3 -3 c -1 -3 -2 -6 -4 -6" fill="currentColor"/>
</svg>